<svg xmlns="http://www.w3.org/2000/svg" width="131" height="40" fill="none"><rect width="129" height="39" x=".668" y=".5" fill="#fff" rx="5.5"/><path fill="#00D7FE" fill-rule="evenodd" d="M9.603 7.547c-.29.308-.462.785-.462 1.404v22.098c0 .619.171 1.096.462 1.404l.074.072 12.38-12.379v-.292L9.676 7.475l-.074.072Z" clip-rule="evenodd"/><mask id="a" width="11" height="10" x="22" y="15" maskUnits="userSpaceOnUse" style="mask-type:alpha"><path fill="#fff" d="m26.181 24.274-4.125-4.128v-.292l4.127-4.127 4.982 2.83c1.396.794 1.396 2.092 0 2.885l-4.889 2.778-.095.054Z"/></mask><g mask="url(#a)"><path fill="url(#b)" fill-rule="evenodd" d="m26.181 24.274-4.125-4.128v-.292l4.127-4.127 4.982 2.83c1.396.794 1.396 2.092 0 2.885l-4.889 2.778-.095.054Z" clip-rule="evenodd"/></g><mask id="c" width="18" height="13" x="9" y="20" maskUnits="userSpaceOnUse" style="mask-type:alpha"><path fill="#fff" d="M26.276 24.22 22.056 20 9.603 32.453c.461.487 1.221.547 2.077.061l14.596-8.294Z"/></mask><g mask="url(#c)"><path fill="url(#d)" fill-rule="evenodd" d="M26.276 24.22 22.056 20 9.603 32.453c.461.487 1.221.547 2.077.061l14.596-8.294Z" clip-rule="evenodd"/></g><mask id="e" width="18" height="13" x="9" y="7" maskUnits="userSpaceOnUse" style="mask-type:alpha"><path fill="#fff" d="M26.276 15.78 11.68 7.486c-.856-.486-1.616-.426-2.077.061L22.056 20l4.22-4.22Z"/></mask><g mask="url(#e)"><path fill="url(#f)" fill-rule="evenodd" d="M26.276 15.78 11.68 7.486c-.856-.486-1.616-.426-2.077.061L22.056 20l4.22-4.22Z" clip-rule="evenodd"/></g><path fill="#000" fill-rule="evenodd" d="M104.062 30.953h1.866V18.452h-1.866v12.501Zm16.807-7.998-2.139 5.42h-.064l-2.22-5.42h-2.01l3.329 7.575-1.898 4.214h1.947l5.13-11.789h-2.075Zm-10.582 6.578c-.612 0-1.464-.305-1.464-1.061 0-.965 1.062-1.335 1.978-1.335.821 0 1.206.177 1.705.418a2.262 2.262 0 0 1-2.219 1.978Zm.225-6.851c-1.351 0-2.75.595-3.329 1.914l1.656.691c.354-.691 1.013-.917 1.705-.917.965 0 1.946.579 1.962 1.609v.128c-.338-.193-1.061-.482-1.946-.482-1.785 0-3.603.981-3.603 2.814 0 1.673 1.464 2.751 3.104 2.751 1.255 0 1.946-.563 2.381-1.223h.064v.965h1.801V26.14c0-2.22-1.656-3.458-3.795-3.458ZM98.98 24.477h-2.654v-4.285h2.654c1.395 0 2.187 1.155 2.187 2.142 0 .969-.792 2.143-2.187 2.143Zm-.048-6.025h-4.471v12.501h1.865v-4.736h2.606c2.068 0 4.101-1.498 4.101-3.883s-2.033-3.882-4.101-3.882ZM74.551 29.535c-1.289 0-2.368-1.079-2.368-2.561 0-1.498 1.079-2.594 2.368-2.594 1.273 0 2.271 1.096 2.271 2.594 0 1.482-.998 2.561-2.271 2.561Zm2.142-5.88h-.064c-.419-.499-1.224-.95-2.239-.95-2.127 0-4.076 1.868-4.076 4.269 0 2.384 1.949 4.237 4.076 4.237 1.015 0 1.82-.451 2.239-.967h.064v.612c0 1.628-.869 2.498-2.271 2.498-1.144 0-1.853-.822-2.143-1.515l-1.627.677c.467 1.128 1.708 2.513 3.77 2.513 2.191 0 4.044-1.289 4.044-4.43v-7.637h-1.773v.693Zm3.062 7.298h1.869V18.451h-1.869v12.502Zm4.623-4.124c-.048-1.643 1.273-2.481 2.223-2.481.742 0 1.37.37 1.579.902l-3.802 1.579Zm5.8-1.418c-.354-.95-1.434-2.706-3.641-2.706-2.191 0-4.011 1.723-4.011 4.253 0 2.384 1.804 4.253 4.22 4.253 1.95 0 3.078-1.192 3.545-1.885l-1.45-.967c-.483.709-1.144 1.176-2.095 1.176-.95 0-1.627-.435-2.062-1.288l5.687-2.352-.193-.484ZM44.87 24.01v1.804h4.317c-.129 1.015-.467 1.756-.982 2.272-.629.628-1.612 1.32-3.335 1.32-2.658 0-4.737-2.142-4.737-4.8 0-2.659 2.079-4.801 4.737-4.801 1.434 0 2.481.564 3.254 1.289l1.273-1.273C48.317 18.79 46.884 18 44.87 18c-3.641 0-6.702 2.965-6.702 6.606s3.061 6.605 6.702 6.605c1.965 0 3.447-.644 4.607-1.853 1.192-1.192 1.563-2.867 1.563-4.221 0-.419-.032-.805-.097-1.127H44.87Zm11.079 5.525c-1.289 0-2.401-1.063-2.401-2.577 0-1.531 1.112-2.578 2.401-2.578 1.288 0 2.4 1.047 2.4 2.578 0 1.514-1.112 2.577-2.4 2.577Zm0-6.83c-2.353 0-4.27 1.788-4.27 4.253 0 2.448 1.917 4.253 4.27 4.253 2.352 0 4.269-1.805 4.269-4.253 0-2.465-1.917-4.253-4.269-4.253Zm9.313 6.83c-1.289 0-2.401-1.063-2.401-2.577 0-1.531 1.112-2.578 2.401-2.578 1.289 0 2.4 1.047 2.4 2.578 0 1.514-1.111 2.577-2.4 2.577Zm0-6.83c-2.352 0-4.269 1.788-4.269 4.253 0 2.448 1.917 4.253 4.269 4.253 2.352 0 4.269-1.805 4.269-4.253 0-2.465-1.917-4.253-4.269-4.253Z" clip-rule="evenodd"/><path fill="#666" d="M43.64 10.814v2.342c-.08.117-.206.25-.379.396-.173.143-.411.27-.716.378-.302.105-.692.158-1.169.158-.39 0-.749-.067-1.077-.202a2.428 2.428 0 0 1-.848-.598 2.8 2.8 0 0 1-.553-.958 3.964 3.964 0 0 1-.194-1.283v-.497c0-.477.056-.904.167-1.279.114-.375.281-.692.501-.953a2.1 2.1 0 0 1 .809-.598c.319-.137.685-.206 1.098-.206.49 0 .898.085 1.226.255.331.167.59.398.774.694.187.296.307.633.36 1.01h-.848a1.778 1.778 0 0 0-.228-.632 1.221 1.221 0 0 0-.48-.457c-.207-.117-.476-.176-.804-.176a1.7 1.7 0 0 0-.769.163 1.415 1.415 0 0 0-.536.465c-.14.203-.246.447-.316.734-.068.287-.101.611-.101.971v.506c0 .369.042.699.127.989.088.29.213.537.374.742a1.613 1.613 0 0 0 1.322.62c.302 0 .547-.025.734-.075.188-.053.334-.114.44-.184.105-.074.186-.142.241-.207V11.5h-1.48v-.685h2.324Zm5.2 2.496V14h-3.388v-.69h3.388Zm-3.216-5.708V14h-.849V7.602h.849Zm2.768 2.75v.69h-2.94v-.69h2.94Zm.404-2.75v.694h-3.344v-.694h3.344Zm3.277 0V14h-.835V7.602h.835Zm2.056 0v.694h-4.943v-.694h4.943Zm3.376 0V14h-.848V7.602h.848Zm3.505 0V14h-.835V7.602h.835Zm2.056 0v.694h-4.943v-.694h4.944Zm7.393 2.997v.404c0 .48-.06.911-.18 1.292-.12.38-.293.704-.52.971a2.25 2.25 0 0 1-.812.611 2.55 2.55 0 0 1-1.055.21c-.378 0-.725-.07-1.041-.21a2.343 2.343 0 0 1-.818-.61 2.846 2.846 0 0 1-.531-.972 4.103 4.103 0 0 1-.19-1.292v-.404c0-.48.062-.91.185-1.288.126-.38.303-.705.532-.971.228-.27.5-.475.813-.615.316-.141.663-.211 1.041-.211.39 0 .742.07 1.055.21.316.141.587.346.813.616.229.266.403.59.523.971.123.378.185.807.185 1.288Zm-.84.404v-.413c0-.381-.04-.718-.118-1.01a2.093 2.093 0 0 0-.339-.74 1.46 1.46 0 0 0-.55-.452 1.667 1.667 0 0 0-.729-.154c-.263 0-.502.052-.716.154-.21.103-.392.254-.545.453-.15.199-.265.445-.347.738a3.76 3.76 0 0 0-.123 1.01v.414c0 .384.041.724.123 1.02.082.292.2.54.352.742.155.2.338.35.549.453.214.102.453.154.716.154.276 0 .52-.052.734-.154.214-.103.394-.254.54-.453.15-.202.263-.45.339-.742.076-.296.114-.636.114-1.02Zm6.761-3.401V14h-.852l-3.221-4.935V14h-.848V7.602h.848l3.234 4.948V7.602h.84Z"/><rect width="129" height="39" x=".668" y=".5" stroke="#000" rx="5.5"/><defs><linearGradient id="b" x1="30.257" x2="22.056" y1="20" y2="20" gradientUnits="userSpaceOnUse"><stop stop-color="#FFBC00"/><stop offset="1" stop-color="#FFDA03"/></linearGradient><linearGradient id="d" x1="23.983" x2="13.279" y1="23.971" y2="32.793" gradientUnits="userSpaceOnUse"><stop stop-color="#E22652"/><stop offset="1" stop-color="#FF3A44"/></linearGradient><linearGradient id="f" x1="11.489" x2="18.625" y1="9.046" y2="15.321" gradientUnits="userSpaceOnUse"><stop stop-color="#0ED574"/><stop offset="1" stop-color="#07F076"/></linearGradient></defs></svg>
